<svg width="24" height="24" viewBox="0 0 24 24" fill="none" xmlns="http://www.w3.org/2000/svg">
<g clip-path="url(#clip0)">
<path d="M12.5935 11.4071C12.4102 11.2238 12.1135 11.2238 11.9302 11.4071C11.7474 11.5899 11.7474 11.8866 11.9302 12.0699C12.1135 12.2527 12.4102 12.2527 12.5935 12.0699C12.7763 11.8866 12.7763 11.5899 12.5935 11.4071Z" fill="#4C9AFF"/>
<path d="M18.5593 5.44072C17.6434 4.52483 16.1606 4.52478 15.2446 5.44072C14.3311 6.35426 14.331 7.84114 15.2448 8.75543C16.1586 9.66874 17.6455 9.66912 18.5593 8.75534C19.4751 7.83949 19.4753 6.3567 18.5593 5.44072ZM17.8964 8.09239C17.3483 8.64054 16.4561 8.64054 15.9077 8.09248C15.3595 7.54395 15.3594 6.65173 15.9076 6.10362C16.4571 5.55411 17.3468 5.55402 17.8964 6.10362C18.4459 6.65309 18.446 7.54282 17.8964 8.09239Z" fill="#4C9AFF"/>
<path d="M23.8626 0.137301C23.7705 0.0452857 23.6449 -0.00458915 23.5143 0.000332718C23.4083 0.00412959 20.8848 0.105567 17.8851 1.16583C15.4813 2.01455 13.4777 3.22969 11.93 4.77749C11.5832 5.12432 11.2457 5.4921 10.9227 5.87418C9.39236 4.97334 8.16602 5.25581 7.39076 5.6707C5.60571 6.62601 4.50082 9.21988 4.50082 11.0752C4.50096 11.2647 4.6152 11.4357 4.79032 11.5082C4.84831 11.5323 4.90925 11.5439 4.96962 11.5439C5.09164 11.5439 5.21149 11.4963 5.30117 11.4066C6.24256 10.4652 7.40369 10.5241 7.783 10.574L7.94716 10.7382C7.6241 11.5069 7.36385 12.2713 7.17298 13.0148C7.10407 13.2839 7.12732 13.5686 7.22974 13.829C6.77843 14.037 6.34301 14.3424 5.96388 14.7215C4.75728 15.9282 4.51226 18.8688 4.50242 18.9934C4.49164 19.1302 4.54123 19.2648 4.63821 19.3618C4.72648 19.45 4.84587 19.4991 4.96962 19.4991C4.9819 19.4991 4.99423 19.4986 5.00656 19.4976C5.13115 19.4878 8.0719 19.2428 9.2785 18.0362C9.65749 17.6572 9.96283 17.2218 10.1708 16.7706C10.4465 16.879 10.7303 16.8924 10.9855 16.827C11.7287 16.6362 12.493 16.376 13.2618 16.0529L13.426 16.2171C13.4758 16.5964 13.5347 17.7576 12.5934 18.6989C12.4593 18.8329 12.4192 19.0345 12.4918 19.2097C12.5643 19.3848 12.7352 19.499 12.9248 19.499C14.7801 19.499 17.3739 18.3941 18.3293 16.6091C18.7441 15.8339 19.0266 14.6076 18.1258 13.0772C18.5077 12.7544 18.8755 12.4169 19.2225 12.0699C20.7703 10.5221 21.9854 8.51853 22.8341 6.11498C23.8944 3.11508 23.9958 0.591519 23.9996 0.485582C24.0043 0.355504 23.9546 0.229364 23.8626 0.137301ZM5.54885 10.067C5.84004 8.65775 6.6858 7.1114 7.8333 6.49724C8.60013 6.0869 9.4383 6.12712 10.3295 6.61494C9.57025 7.61347 8.91021 8.68925 8.36004 9.82527C8.35305 9.82095 8.26868 9.71488 8.11193 9.67953C8.04747 9.66495 6.80721 9.39819 5.54885 10.067ZM8.6156 17.3733C7.97107 18.0178 6.45912 18.3577 5.50348 18.4965C5.64232 17.5408 5.98231 16.0289 6.62679 15.3844C6.98773 15.0235 7.40622 14.7499 7.82688 14.5957L9.40431 16.1732C9.25019 16.5938 8.97658 17.0123 8.6156 17.3733ZM10.7526 15.9189C10.617 15.9536 10.4598 15.9026 10.343 15.786C9.73661 15.1796 9.49938 14.9423 9.42494 14.8679C9.28844 14.7314 8.95371 14.3967 8.21435 13.6573C8.09744 13.5401 8.04644 13.3831 8.08108 13.2477C8.23122 12.6629 8.42758 12.063 8.66636 11.4574L12.5427 15.3337C11.9369 15.5725 11.3371 15.7688 10.7526 15.9189ZM17.5028 16.1667C16.8886 17.3142 15.3423 18.16 13.9332 18.4511C14.3825 17.6057 14.4815 16.5294 14.3174 15.8767C14.2793 15.7251 14.1804 15.6489 14.1748 15.64C15.3107 15.0898 16.3865 14.4297 17.3851 13.6705C17.8729 14.5618 17.9131 15.4001 17.5028 16.1667ZM18.5596 11.407C18.1373 11.8294 17.6824 12.2374 17.2078 12.6198C16.0667 13.5385 14.8109 14.3167 13.471 14.9362L9.06382 10.5291C9.68331 9.18917 10.4615 7.9333 11.3802 6.79241C11.7629 6.31743 12.1709 5.86256 12.5931 5.4404C13.9817 4.05168 15.774 2.94647 17.9214 2.15091L21.8491 6.07865C21.0537 8.22603 19.9485 10.0183 18.5596 11.407ZM22.1864 5.09001L18.91 1.81364C20.6951 1.25921 22.248 1.0516 23.0231 0.976971C22.9484 1.75224 22.7408 3.30515 22.1864 5.09001Z" fill="#4C9AFF"/>
<path d="M11.2674 19.3616C11.0842 19.1786 10.7874 19.1787 10.6044 19.3617L9.27879 20.6878C9.09579 20.8709 9.09584 21.1677 9.27889 21.3507C9.46203 21.5337 9.75884 21.5337 9.94184 21.3506L11.2675 20.0245C11.4505 19.8414 11.4504 19.5446 11.2674 19.3616Z" fill="#4C9AFF"/>
<path d="M4.63848 12.7327C4.45548 12.5496 4.15871 12.5496 3.97557 12.7326L2.64948 14.0582C2.46638 14.2412 2.46634 14.538 2.64934 14.7211C2.83229 14.9041 3.12906 14.9043 3.31224 14.7212L4.63834 13.3956C4.82143 13.2126 4.82148 12.9158 4.63848 12.7327Z" fill="#4C9AFF"/>
<path d="M7.95293 20.025C7.76998 19.8419 7.47312 19.8419 7.29003 20.0249L4.11472 23.1998C3.93163 23.3828 3.93163 23.6796 4.11467 23.8627C4.29763 24.0457 4.59448 24.0458 4.77758 23.8627L7.95288 20.6879C8.13598 20.5048 8.13598 20.208 7.95293 20.025Z" fill="#4C9AFF"/>
<path d="M4.203 20.025C4.02 19.8419 3.72314 19.8419 3.5401 20.0249L0.364789 23.1998C0.181695 23.3828 0.181695 23.6796 0.364742 23.8627C0.547695 24.0457 0.844553 24.0458 1.02765 23.8627L4.20295 20.6879C4.38605 20.5048 4.38605 20.208 4.203 20.025Z" fill="#4C9AFF"/>
<path d="M3.97511 16.047C3.79211 15.864 3.49525 15.864 3.31221 16.0471L0.137371 19.2224C-0.0456759 19.4055 -0.0456759 19.7022 0.137417 19.8853C0.320464 20.0684 0.617276 20.0684 0.800322 19.8853L3.97516 16.71C4.15821 16.5269 4.15821 16.2301 3.97511 16.047Z" fill="#4C9AFF"/>
<path d="M14.582 9.41805C14.3989 9.235 14.1022 9.235 13.9191 9.41805L13.2563 10.0809C13.0732 10.2639 13.0732 10.5607 13.2563 10.7438C13.4393 10.9269 13.7361 10.9269 13.9192 10.7438L14.582 10.081C14.7651 9.89795 14.7651 9.60114 14.582 9.41805Z" fill="#4C9AFF"/>
</g>
<defs>
<clipPath id="clip0">
<rect width="24" height="24" fill="white"/>
</clipPath>
</defs>
</svg>
