<svg width="110" height="61" viewBox="0 0 110 61" fill="none" xmlns="http://www.w3.org/2000/svg">
<path d="M69.7072 47.8759C69.9161 47.9586 70.1251 48 70.334 48C70.8773 48 71.4205 47.7519 71.7549 47.2557L89.6827 21.6178C90.0588 21.1216 90.1006 20.4187 89.808 19.8811C89.5155 19.3435 88.9304 18.9714 88.3036 18.9714L77.1875 18.8887L80.4053 2.01731C80.5725 1.27299 80.1546 0.487314 79.4442 0.156503C78.7337 -0.174308 77.8979 0.0324489 77.3965 0.652719L58.3821 24.347C57.9642 24.8433 57.8807 25.5462 58.1732 26.1251C58.4657 26.7041 59.0508 27.0762 59.7194 27.0762L72.0056 27.1589L68.7042 46.0151C68.537 46.8008 68.9549 47.5865 69.7072 47.8759ZM63.2297 23.7268L75.7667 8.09596L73.4264 20.2946C73.3429 20.7908 73.4682 21.287 73.8026 21.7006C74.1369 22.0727 74.5966 22.3208 75.098 22.3208L85.0022 22.3622L73.3429 39.0681L75.6413 25.753C75.7249 25.2568 75.5995 24.7606 75.2652 24.3884C74.9727 24.0162 74.513 23.8095 74.0115 23.8095L63.2297 23.7268Z" fill="#0052CC"/>
<path d="M1.88564 58L2.42542 56.3417H5.04971L5.58948 58H7.23721L4.7301 50.7273H2.74857L0.237915 58H1.88564ZM2.81604 55.1414L3.71093 52.3892H3.76774L4.66263 55.1414H2.81604Z" fill="#6B778C"/>
<path d="M9.4002 50.7273H7.86256V58H9.4002V50.7273Z" fill="#6B778C"/>
<path d="M14.3606 52.8189H15.8343C15.813 51.5228 14.7477 50.6279 13.1284 50.6279C11.5339 50.6279 10.3656 51.5086 10.3727 52.8296C10.3691 53.902 11.1255 54.5164 12.3542 54.8111L13.1461 55.01C13.938 55.2017 14.3784 55.429 14.3819 55.9191C14.3784 56.4517 13.8741 56.814 13.0929 56.814C12.2938 56.814 11.7186 56.4446 11.6688 55.7167H10.1809C10.22 57.2898 11.3457 58.103 13.1106 58.103C14.8862 58.103 15.9302 57.2543 15.9338 55.9226C15.9302 54.7117 15.0176 54.0689 13.7534 53.7848L13.1 53.6286C12.4679 53.483 11.9387 53.2486 11.9494 52.7266C11.9494 52.2579 12.3649 51.9134 13.1177 51.9134C13.8528 51.9134 14.3038 52.2472 14.3606 52.8189Z" fill="#6B778C"/>
<path d="M23.1349 53.2735C22.9325 51.5938 21.6612 50.6279 19.978 50.6279C18.0568 50.6279 16.5902 51.9844 16.5902 54.3637C16.5902 56.7358 18.0319 58.0995 19.978 58.0995C21.8423 58.0995 22.968 56.8601 23.1349 55.5214L21.5795 55.5142C21.4339 56.2919 20.8231 56.7394 20.0028 56.7394C18.8984 56.7394 18.1491 55.9191 18.1491 54.3637C18.1491 52.8509 18.8878 51.988 20.0135 51.988C20.8551 51.988 21.4623 52.4745 21.5795 53.2735H23.1349Z" fill="#6B778C"/>
<path d="M30.6708 54.3637C30.6708 51.9844 29.1935 50.6279 27.2653 50.6279C25.3263 50.6279 23.8597 51.9844 23.8597 54.3637C23.8597 56.7323 25.3263 58.0995 27.2653 58.0995C29.1935 58.0995 30.6708 56.7429 30.6708 54.3637ZM29.1119 54.3637C29.1119 55.9049 28.3803 56.7394 27.2653 56.7394C26.1467 56.7394 25.4187 55.9049 25.4187 54.3637C25.4187 52.8225 26.1467 51.988 27.2653 51.988C28.3803 51.988 29.1119 52.8225 29.1119 54.3637Z" fill="#6B778C"/>
<path d="M36.2024 58C38.4183 58 39.7606 56.6293 39.7606 54.3566C39.7606 52.091 38.4183 50.7273 36.2237 50.7273H33.6243V58H36.2024ZM35.1619 56.6826V52.0448H36.142C37.5057 52.0448 38.2266 52.7408 38.2266 54.3566C38.2266 55.9794 37.5057 56.6826 36.1385 56.6826H35.1619Z" fill="#6B778C"/>
<path d="M43.1213 58.1066C44.4742 58.1066 45.3798 57.4496 45.5928 56.4375L44.1973 56.3452C44.0446 56.7607 43.6504 56.9773 43.1497 56.9773C42.3933 56.9773 41.9139 56.4766 41.9139 55.6634V55.6598H45.6284V55.2444C45.6284 53.3907 44.5062 52.4745 43.0644 52.4745C41.4593 52.4745 40.4188 53.6144 40.4188 55.2976C40.4188 57.027 41.4451 58.1066 43.1213 58.1066ZM41.9139 54.7223C41.9423 54.1009 42.4181 53.6037 43.0893 53.6037C43.7427 53.6037 44.1973 54.0725 44.2044 54.7223H41.9139Z" fill="#6B778C"/>
<path d="M50.9252 54.1009C50.7903 53.0959 49.9806 52.4745 48.6028 52.4745C47.2072 52.4745 46.2875 53.1208 46.291 54.1719C46.2875 54.9887 46.8024 55.5178 47.8677 55.7309L48.8123 55.9191C49.2882 56.015 49.5048 56.189 49.5119 56.4624C49.5048 56.7856 49.1532 57.0164 48.6241 57.0164C48.0843 57.0164 47.7257 56.7856 47.6333 56.3417L46.1454 56.4198C46.2875 57.4638 47.1752 58.1066 48.6205 58.1066C50.0339 58.1066 51.046 57.3857 51.0495 56.3097C51.046 55.5214 50.5311 55.0491 49.4728 54.8324L48.4856 54.6336C47.9778 54.5235 47.7896 54.3495 47.7931 54.0867C47.7896 53.76 48.1589 53.5469 48.6277 53.5469C49.1532 53.5469 49.4657 53.8346 49.5403 54.1861L50.9252 54.1009Z" fill="#6B778C"/>
<path d="M51.7521 58H53.2649V52.5455H51.7521V58ZM52.5121 51.8992C52.9524 51.8992 53.3324 51.5654 53.3324 51.1321C53.3324 50.7025 52.9524 50.3687 52.5121 50.3687C52.0753 50.3687 51.6953 50.7025 51.6953 51.1321C51.6953 51.5654 52.0753 51.8992 52.5121 51.8992Z" fill="#6B778C"/>
<path d="M56.4959 60.1236C58.2608 60.1236 59.3404 59.211 59.3404 57.8047V52.5455H57.8489V53.4617H57.7921C57.5897 53.0178 57.1458 52.4745 56.2331 52.4745C55.0364 52.4745 54.0243 53.4049 54.0243 55.2621C54.0243 57.0767 55.008 57.9219 56.2367 57.9219C57.1067 57.9219 57.5932 57.4851 57.7921 57.0341H57.8737V57.7799C57.8773 58.4901 57.2736 58.9517 56.503 58.9517C55.8141 58.9517 55.3951 58.5895 55.1926 58.3481L54.1912 59.1151C54.5747 59.662 55.2637 60.1236 56.4959 60.1236ZM56.7161 56.7856C55.9739 56.7856 55.5691 56.1961 55.5691 55.255C55.5691 54.3282 55.9668 53.6783 56.7161 53.6783C57.4512 53.6783 57.8631 54.2998 57.8631 55.255C57.8631 56.2174 57.4441 56.7856 56.7161 56.7856Z" fill="#6B778C"/>
<path d="M61.8176 54.8466C61.8212 54.1435 62.2402 53.7316 62.851 53.7316C63.4583 53.7316 63.824 54.1293 63.8205 54.7969V58H65.3333V54.527C65.3333 53.2557 64.5875 52.4745 63.4512 52.4745C62.6415 52.4745 62.0556 52.8722 61.8105 53.5079H61.7466V52.5455H60.3049V58H61.8176V54.8466Z" fill="#6B778C"/>
<path d="M72.3137 52.8189H73.7875C73.7661 51.5228 72.7008 50.6279 71.0815 50.6279C69.487 50.6279 68.3187 51.5086 68.3258 52.8296C68.3223 53.902 69.0786 54.5164 70.3073 54.8111L71.0992 55.01C71.8911 55.2017 72.3315 55.429 72.335 55.9191C72.3315 56.4517 71.8272 56.814 71.046 56.814C70.247 56.814 69.6717 56.4446 69.622 55.7167H68.134C68.1731 57.2898 69.2988 58.103 71.0637 58.103C72.8393 58.103 73.8833 57.2543 73.8869 55.9226C73.8833 54.7117 72.9707 54.0689 71.7065 53.7848L71.0531 53.6286C70.421 53.483 69.8919 53.2486 69.9025 52.7266C69.9025 52.2579 70.318 51.9134 71.0708 51.9134C71.8059 51.9134 72.2569 52.2472 72.3137 52.8189Z" fill="#6B778C"/>
<path d="M75.5234 60.1236C76.6314 60.1236 77.2883 59.4986 77.5973 58.625L79.728 52.5455H78.1264L76.9865 56.5512H76.9297L75.8004 52.5455H74.2095L76.1733 58.1634L76.0667 58.4191C75.8466 58.9127 75.4879 58.9482 74.9552 58.7848L74.6143 59.9567C74.7848 60.0313 75.0937 60.1236 75.5234 60.1236Z" fill="#6B778C"/>
<path d="M84.7905 54.1009C84.6555 53.0959 83.8459 52.4745 82.468 52.4745C81.0724 52.4745 80.1527 53.1208 80.1562 54.1719C80.1527 54.9887 80.6676 55.5178 81.7329 55.7309L82.6775 55.9191C83.1534 56.015 83.37 56.189 83.3771 56.4624C83.37 56.7856 83.0185 57.0164 82.4893 57.0164C81.9496 57.0164 81.5909 56.7856 81.4986 56.3417L80.0106 56.4198C80.1527 57.4638 81.0405 58.1066 82.4858 58.1066C83.8991 58.1066 84.9112 57.3857 84.9148 56.3097C84.9112 55.5214 84.3963 55.0491 83.3381 54.8324L82.3508 54.6336C81.843 54.5235 81.6548 54.3495 81.6584 54.0867C81.6548 53.76 82.0241 53.5469 82.4929 53.5469C83.0185 53.5469 83.331 53.8346 83.4055 54.1861L84.7905 54.1009Z" fill="#6B778C"/>
<path d="M88.5186 52.5455H87.4924V51.2387H85.9796V52.5455H85.2338V53.6819H85.9796V56.5121C85.9725 57.5775 86.7005 58.1066 87.7978 58.064C88.1884 58.0462 88.4654 57.9681 88.6181 57.9219L88.3801 56.7927C88.3056 56.8104 88.1458 56.8424 88.0037 56.8424C87.7019 56.8424 87.4817 56.7287 87.4924 56.3097V53.6819H88.5186V52.5455Z" fill="#6B778C"/>
<path d="M91.715 58.1066C93.068 58.1066 93.9735 57.4496 94.1866 56.4375L92.791 56.3452C92.6383 56.7607 92.2441 56.9773 91.7434 56.9773C90.987 56.9773 90.5076 56.4766 90.5076 55.6634V55.6598H94.2221V55.2444C94.2221 53.3907 93.1 52.4745 91.6582 52.4745C90.0531 52.4745 89.0126 53.6144 89.0126 55.2976C89.0126 57.027 90.0389 58.1066 91.715 58.1066ZM90.5076 54.7223C90.536 54.1009 91.0119 53.6037 91.6831 53.6037C92.3365 53.6037 92.791 54.0725 92.7981 54.7223H90.5076Z" fill="#6B778C"/>
<path d="M94.9806 58H96.4934V54.7259C96.4934 54.1222 96.8769 53.7209 97.3812 53.7209C97.8784 53.7209 98.2122 54.0618 98.2122 54.5981V58H99.6788V54.6691C99.6788 54.1044 100.002 53.7209 100.552 53.7209C101.035 53.7209 101.398 54.0228 101.398 54.63V58H102.907V54.3317C102.907 53.1492 102.204 52.4745 101.188 52.4745C100.389 52.4745 99.7676 52.8829 99.5438 53.5079H99.487C99.313 52.8758 98.7555 52.4745 98.0062 52.4745C97.2711 52.4745 96.7136 52.8651 96.4863 53.5079H96.4224V52.5455H94.9806V58Z" fill="#6B778C"/>
<path d="M0.0340881 41H14.9489C22.7898 41 26.9659 36.9091 26.9659 31.3523C26.9659 26.1875 23.267 23.0682 19.2955 22.8807V22.5398C22.9261 21.7216 25.6023 19.1478 25.6023 15.0398C25.6023 9.80685 21.7159 6.09094 14.0114 6.09094H0.0340881V41ZM7.41477 34.9659V25.6932H13.6023C17.1477 25.6932 19.3466 27.7387 19.3466 30.6194C19.3466 33.2444 17.5568 34.9659 13.4318 34.9659H7.41477ZM7.41477 20.6989V12.0569H13.0227C16.2955 12.0569 18.1534 13.7444 18.1534 16.2671C18.1534 19.0284 15.9034 20.6989 12.8864 20.6989H7.41477Z" fill="#172B4D"/>
<path d="M42.3469 41.5114C50.2901 41.5114 55.2332 36.0739 55.2332 28.0114C55.2332 19.8978 50.2901 14.4773 42.3469 14.4773C34.3866 14.4773 29.4605 19.8978 29.4605 28.0114C29.4605 36.0739 34.3866 41.5114 42.3469 41.5114ZM42.381 35.8864C38.7162 35.8864 36.8412 32.5284 36.8412 27.9603C36.8412 23.3921 38.7162 20.0171 42.381 20.0171C45.9776 20.0171 47.8526 23.3921 47.8526 27.9603C47.8526 32.5284 45.9776 35.8864 42.381 35.8864Z" fill="#172B4D"/>
<path d="M108.824 14.8182H103.898V8.54549H96.6364V14.8182H93.0568V20.2728H96.6364V33.858C96.6023 38.9716 100.097 41.5114 105.364 41.3069C107.239 41.2216 108.568 40.8466 109.301 40.625L108.159 35.2046C107.801 35.2898 107.034 35.4432 106.352 35.4432C104.903 35.4432 103.847 34.8978 103.898 32.8864V20.2728H108.824V14.8182Z" fill="#172B4D"/>
</svg>
